<?xml version="1.0" encoding="UTF-8" standalone="no"?> <svg width="512" height="512" viewBox="0 0 512 512" fill="none" xmlns="http://www.w3.org/2000/svg">
<path d="M480 96H32V416H480V96Z" fill="#E92B2B"/>
<path d="M32 416H192L192 96H32L32 416Z" fill="#32AB45"/>
<path fill-rule="evenodd" clip-rule="evenodd" d="M192 208C165.49 208 144 229.49 144 256C144 282.51 165.49 304 192 304C218.51 304 240 282.51 240 256C240 229.49 218.51 208 192 208ZM128 256C128 220.654 156.654 192 192 192C227.346 192 256 220.654 256 256C256 291.346 227.346 320 192 320C156.654 320 128 291.346 128 256Z" fill="#FFE70E"/>
<path fill-rule="evenodd" clip-rule="evenodd" d="M226.344 301.657L146.344 221.657L157.657 210.344L237.657 290.344L226.344 301.657Z" fill="#FFE70E"/>
<path fill-rule="evenodd" clip-rule="evenodd" d="M184 312.567L184 199.43H200L200 312.567H184Z" fill="#FFE70E"/>
<path fill-rule="evenodd" clip-rule="evenodd" d="M135.988 248.57L249.125 248.57V264.57L135.988 264.57V248.57Z" fill="#FFE70E"/>
<path fill-rule="evenodd" clip-rule="evenodd" d="M157.656 301.657L237.656 221.657L226.343 210.344L146.343 290.344L157.656 301.657Z" fill="#FFE70E"/>
<path d="M216 224H168C163.582 224 160 227.582 160 232V264C160 281.673 174.327 296 192 296C209.673 296 224 281.673 224 264V232C224 227.582 220.418 224 216 224Z" fill="#E92B2B"/>
<path d="M208 240H176V264C176 272.837 183.163 280 192 280C200.837 280 208 272.837 208 264V240Z" fill="#FBFBFB"/>
</svg>
